<svg
  class="bulb"
  viewBox="0 0 120 160"
  xmlns="http://www.w3.org/2000/svg"
  aria-label="Лампочка"
>
  <!-- Свечение -->
  <g class="bulb__rays">
    <line x1="60" y1="8" x2="60" y2="22" />
    <line x1="27" y1="18" x2="35" y2="30" />
    <line x1="93" y1="18" x2="85" y2="30" />
    <line x1="10" y1="50" x2="24" y2="54" />
    <line x1="110" y1="50" x2="96" y2="54" />
  </g>

  <!-- Колба -->
  <path
    class="bulb__glass"
    d="
      M60 20
      C37 20 22 37 22 59
      C22 75 30 84 38 94
      C42 99 44 105 44 111
      H76
      C76 105 78 99 82 94
      C90 84 98 75 98 59
      C98 37 83 20 60 20Z
    "
  />

  <!-- Нить накала -->
  <path
    class="bulb__filament"
    d="M48 70 C48 57 53 52 60 52 C67 52 72 57 72 70"
  />

  <!-- Ножки -->
  <path
    class="bulb__filament"
    d="M48 70 L48 88 M72 70 L72 88"
  />

  <!-- Цоколь -->
  <path
    class="bulb__base"
    d="M43 111 H77 L75 120 H45 Z"
  />

  <path
    class="bulb__thread"
    d="
      M44 116 H76
      M45 122 H75
      M47 128 H73
      M49 134 H71
    "
  />

  <!-- Нижний контакт -->
  <path
    class="bulb__contact"
    d="M49 139 H71 C70 145 66 149 60 149 C54 149 50 145 49 139Z"
  />
</svg>
